<?xml version="1.0" standalone="no"?>
<!DOCTYPE svg PUBLIC "-//W3C//DTD SVG 1.1//EN" "http://www.w3.org/Graphics/SVG/1.1/DTD/svg11.dtd">
<svg stroke-width="0.501" stroke-linejoin="bevel" fill-rule="evenodd" xmlns:xlink="http://www.w3.org/1999/xlink" xmlns="http://www.w3.org/2000/svg" version="1.1" overflow="visible" width="612pt" height="400pt" viewBox="0 0 612 400">
<!--Generator: Xara Designer (www.xara.com), SVG filter version: 4.0.0.1-->
 <defs>
  <marker id="DefaultArrow2" markerUnits="strokeWidth" viewBox="0 0 1 1" markerWidth="1" markerHeight="1" overflow="visible" orient="auto">
   <!-- REF_ARROW_STRAIGHT (-2) -->
   <g transform="scale(0.0092592592)">
    <!-- 1/108 -->
    <path d="M -9 54 L -9 -54 L 117 0 z"/>
   </g>
  </marker>
  <marker id="DefaultArrow3" markerUnits="strokeWidth" viewBox="0 0 1 1" markerWidth="1" markerHeight="1" overflow="visible" orient="auto">
   <!-- REF_ARROW_ANGLED -->
   <g transform="scale(0.0092592592)">
    <path d="M -27 54 L -9 0 L -27 -54 L 135 0 z"/>
   </g>
  </marker>
  <marker id="DefaultArrow4" markerUnits="strokeWidth" viewBox="0 0 1 1" markerWidth="1" markerHeight="1" overflow="visible" orient="auto">
   <!-- REF_ARROW_ROUNDED -->
   <g transform="scale(0.0092592592)">
    <path d="M -9,0 L -9,-45 C -9,-51.708 2.808,-56.580 9,-54 L 117,-9 C 120.916,-7.369 126.000,-4.242 126,0 C 126,4.242 120.916,7.369 117,9 L 9,54 C 2.808,56.580 -9,51.708 -9,45 z"/>
   </g>
  </marker>
  <marker id="DefaultArrow5" markerUnits="strokeWidth" viewBox="0 0 1 1" markerWidth="1" markerHeight="1" overflow="visible" orient="auto">
   <!-- REF_ARROW_SPOT -->
   <g transform="scale(0.0092592592)">
    <path d="M -54, 0 C -54,29.807 -29.807,54 0,54 C 29.807,54 54,29.807 54,0 C 54,-29.807 29.807,-54 0,-54 C -29.807,-54 -54,-29.807 -54,0 z"/>
   </g>
  </marker>
  <marker id="DefaultArrow6" markerUnits="strokeWidth" viewBox="0 0 1 1" markerWidth="1" markerHeight="1" overflow="visible" orient="auto">
   <!-- REF_ARROW_DIAMOND -->
   <g transform="scale(0.0092592592)">
    <path d="M -63,0 L 0,63 L 63,0 L 0,-63 z"/>
   </g>
  </marker>
  <marker id="DefaultArrow7" markerUnits="strokeWidth" viewBox="0 0 1 1" markerWidth="1" markerHeight="1" overflow="visible" orient="auto">
   <!-- REF_ARROW_FEATHER -->
   <g transform="scale(0.0092592592)">
    <path d="M 18,-54 L 108,-54 L 63,0 L 108,54 L 18, 54 L -36,0 z"/>
   </g>
  </marker>
  <marker id="DefaultArrow8" markerUnits="strokeWidth" viewBox="0 0 1 1" markerWidth="1" markerHeight="1" overflow="visible" orient="auto">
   <!-- REF_ARROW_FEATHER2 -->
   <g transform="scale(0.0092592592)">
    <path d="M -36,0 L 18,-54 L 54,-54 L 18,-18 L 27,-18 L 63,-54 L 99,-54 L 63,-18 L 72,-18 L 108,-54 L 144,-54 L 90,0 L 144,54 L 108,54 L 72,18 L 63,18 L 99,54 L 63,54 L 27,18 L 18,18 L 54,54 L 18,54 z"/>
   </g>
  </marker>
  <marker id="DefaultArrow9" markerUnits="strokeWidth" viewBox="0 0 1 1" markerWidth="1" markerHeight="1" overflow="visible" orient="auto">
   <!-- REF_ARROW_HOLLOWDIAMOND -->
   <g transform="scale(0.0092592592)">
    <path d="M 0,45 L -45,0 L 0, -45 L 45, 0 z M 0, 63 L-63, 0 L 0, -63 L 63, 0 z"/>
   </g>
  </marker>
  <filter id="StainedFilter">
   <feBlend mode="multiply" in2="BackgroundImage" in="SourceGraphic" result="blend"/>
   <feComposite in="blend" in2="SourceAlpha" operator="in" result="comp"/>
  </filter>
  <filter id="BleachFilter">
   <feBlend mode="screen" in2="BackgroundImage" in="SourceGraphic" result="blend"/>
   <feComposite in="blend" in2="SourceAlpha" operator="in" result="comp"/>
  </filter>
  <filter id="InvertTransparencyBitmapFilter">
   <feComponentTransfer>
    <feFuncR type="gamma" amplitude="1.055" exponent=".416666666" offset="-0.055"/>
    <feFuncG type="gamma" amplitude="1.055" exponent=".416666666" offset="-0.055"/>
    <feFuncB type="gamma" amplitude="1.055" exponent=".416666666" offset="-0.055"/>
   </feComponentTransfer>
   <feComponentTransfer>
    <feFuncR type="linear" slope="-1" intercept="1"/>
    <feFuncG type="linear" slope="-1" intercept="1"/>
    <feFuncB type="linear" slope="-1" intercept="1"/>
    <feFuncA type="linear" slope="1" intercept="0"/>
   </feComponentTransfer>
   <feComponentTransfer>
    <feFuncR type="gamma" amplitude="1" exponent="2.4" offset="0"/>
    <feFuncG type="gamma" amplitude="1" exponent="2.4" offset="0"/>
    <feFuncB type="gamma" amplitude="1" exponent="2.4" offset="0"/>
   </feComponentTransfer>
  </filter>
  <marker id="DefaultArrowScaled" markerUnits="strokeWidth" viewBox="0 0 1 1" markerWidth="3" markerHeight="3" overflow="visible" orient="auto">
   <!-- REF_ARROW_STRAIGHT (-2) -->
   <g transform="scale(0.0092592592)">
    <!-- 1/108 -->
    <path d="M -9 54 L -9 -54 L 117 0 z"/>
   </g>
  </marker>
  <marker id="DefaultArrowScaled_1" markerUnits="strokeWidth" viewBox="0 0 1 1" markerWidth="3" markerHeight="3" overflow="visible" orient="auto">
   <!-- REF_ARROW_STRAIGHT (-2) -->
   <g transform="scale(0.0092592592)">
    <!-- 1/108 -->
    <path d="M -9 54 L -9 -54 L 117 0 z"/>
   </g>
  </marker>
  <marker id="DefaultArrowScaled_2" markerUnits="strokeWidth" viewBox="0 0 1 1" markerWidth="3" markerHeight="3" overflow="visible" orient="auto">
   <!-- REF_ARROW_STRAIGHT (-2) -->
   <g transform="scale(0.0092592592)">
    <!-- 1/108 -->
    <path d="M -9 54 L -9 -54 L 117 0 z"/>
   </g>
  </marker>
  <marker id="DefaultArrowScaled_3" markerUnits="strokeWidth" viewBox="0 0 1 1" markerWidth="3" markerHeight="3" overflow="visible" orient="auto">
   <!-- REF_ARROW_STRAIGHT (-2) -->
   <g transform="scale(0.0092592592)">
    <!-- 1/108 -->
    <path d="M -9 54 L -9 -54 L 117 0 z"/>
   </g>
  </marker>
  <marker id="DefaultArrowScaled_4" markerUnits="strokeWidth" viewBox="0 0 1 1" markerWidth="3" markerHeight="3" overflow="visible" orient="auto">
   <!-- REF_ARROW_STRAIGHT (-2) -->
   <g transform="scale(0.0092592592)">
    <!-- 1/108 -->
    <path d="M -9 54 L -9 -54 L 117 0 z"/>
   </g>
  </marker>
  <marker id="DefaultArrowScaled_5" markerUnits="strokeWidth" viewBox="0 0 1 1" markerWidth="3" markerHeight="3" overflow="visible" orient="auto">
   <!-- REF_ARROW_STRAIGHT (-2) -->
   <g transform="scale(0.0092592592)">
    <!-- 1/108 -->
    <path d="M -9 54 L -9 -54 L 117 0 z"/>
   </g>
  </marker>
 </defs>
 <g id="Document" fill="none" stroke="black" font-family="Fira Code" font-size="16" transform="scale(1 -1)">
  <g id="Spread" transform="translate(0 -792)">
   <g id="Layer 1">
    <path d="M 442.002,623.227 L 440.38,617.81 L 456.577,612.96 L 458.199,618.377 L 442.002,623.227 Z" fill="#00bf02" stroke="none" stroke-linecap="round" stroke-width="2" stroke-linejoin="round" marker-start="none" marker-end="none" stroke-miterlimit="79.8403193612775"/>
    <path d="M 342.916,632.171 L 342.916,615.266 L 359.823,615.266 L 359.823,632.171 L 342.916,632.171 Z" fill="#00bf02" stroke="none" stroke-linecap="round" stroke-width="2" stroke-linejoin="round" marker-start="none" marker-end="none" stroke-miterlimit="79.8403193612775"/>
    <path d="M 316.996,623.531 L 316.996,606.626 L 333.903,606.626 L 333.903,623.531 L 316.996,623.531 Z" fill="#00bfbf" stroke="none" stroke-linecap="round" stroke-width="2" stroke-linejoin="round" marker-start="none" marker-end="none" stroke-miterlimit="79.8403193612775"/>
    <path d="M 125.206,560.291 L 125.206,543.386 L 142.113,543.386 L 142.113,560.291 L 125.206,560.291 Z" fill="#ffc17f" stroke="none" stroke-linecap="round" stroke-width="2" stroke-linejoin="round" marker-start="none" marker-end="none" stroke-miterlimit="79.8403193612775"/>
    <path d="M 293.956,628.541 L 293.956,611.636 L 310.863,611.636 L 310.863,628.541 L 293.956,628.541 Z" fill="#ffc17f" stroke="none" stroke-linecap="round" stroke-width="1.999" stroke-linejoin="round" marker-start="none" marker-end="none" stroke-miterlimit="79.8403193612775"/>
    <path d="M 124.244,598.102 L 124.244,418.961 C 124.244,416.392 126.328,414.308 128.897,414.308 L 388.691,414.308 C 391.26,414.308 393.344,416.392 393.344,418.961 L 393.344,513.532 L 370.304,598.102 C 370.304,600.671 368.22,602.755 365.651,602.755 L 303.469,602.755 L 128.897,602.755 C 126.328,602.755 124.244,600.671 124.244,598.102 Z" stroke-width="2" stroke-linejoin="round" stroke-linecap="round" marker-start="none" marker-end="none" stroke-miterlimit="79.8403193612775"/>
    <path d="M 294.468,629.531 L 294.468,610.532 C 294.468,608.876 295.812,607.532 297.468,607.532 L 362.467,607.532 C 364.123,607.532 365.467,608.876 365.467,610.532 L 365.467,629.531 C 365.467,631.187 364.123,632.531 362.467,632.531 L 297.468,632.531 C 295.812,632.531 294.468,631.187 294.468,629.531 Z" stroke-width="2" stroke-linecap="round" stroke-linejoin="miter" marker-start="none" marker-end="none" stroke-miterlimit="79.8403193612775"/>
    <g id="Group" stroke-linecap="round" stroke-width="2" stroke-miterlimit="79.8403193612775">
     <g id="Group_1" stroke-linejoin="miter">
      <path d="M 437.036,624.497 L 433.386,609.706 L 458.86,603.421 L 462.509,618.212 L 437.036,624.497 Z" marker-start="none" marker-end="none"/>
     </g>
     <path d="M 440.003,607.924 L 439.013,603.911 C 438.906,603.475 439.173,603.032 439.609,602.925 L 449.578,600.465 C 450.014,600.358 450.457,600.625 450.565,601.061 L 451.555,605.074" fill="none" stroke-linejoin="round"/>
    </g>
    <path d="M 69.497,415.78 L 107.496,415.78 L 107.496,575.283 L 69.497,575.283 L 69.497,415.78 Z" stroke-linecap="round" stroke-width="2" stroke-linejoin="round" marker-start="none" marker-end="none" stroke-miterlimit="79.8403193612775"/>
    <path d="M 76.749,452.415 C 76.749,458.625 81.789,463.665 87.999,463.665 C 94.209,463.665 99.249,458.625 99.249,452.415 C 99.249,446.205 94.209,441.165 87.999,441.165 C 81.789,441.165 76.749,446.205 76.749,452.415 Z" stroke-linecap="round" stroke-width="2" stroke-linejoin="miter" marker-start="none" marker-end="none" stroke-miterlimit="79.8403193612775"/>
    <path d="M 76.749,478.335 C 76.749,484.545 81.789,489.585 87.999,489.585 C 94.209,489.585 99.249,484.545 99.249,478.335 C 99.249,472.125 94.209,467.085 87.999,467.085 C 81.789,467.085 76.749,472.125 76.749,478.335 Z" stroke-linecap="round" stroke-width="2" stroke-linejoin="miter" marker-start="none" marker-end="none" stroke-miterlimit="79.8403193612775"/>
    <path d="M 76.749,504.255 C 76.749,510.465 81.789,515.505 87.999,515.505 C 94.209,515.505 99.249,510.465 99.249,504.255 C 99.249,498.045 94.209,493.005 87.999,493.005 C 81.789,493.005 76.749,498.045 76.749,504.255 Z" stroke-linecap="round" stroke-width="2" stroke-linejoin="miter" marker-start="none" marker-end="none" stroke-miterlimit="79.8403193612775"/>
    <path d="M 76.749,530.175 C 76.749,536.385 81.789,541.425 87.999,541.425 C 94.209,541.425 99.249,536.385 99.249,530.175 C 99.249,523.965 94.209,518.925 87.999,518.925 C 81.789,518.925 76.749,523.965 76.749,530.175 Z" fill="#00bfbf" stroke-linecap="round" stroke-width="2" stroke-linejoin="miter" marker-start="none" marker-end="none" stroke-miterlimit="79.8403193612775"/>
    <path d="M 76.749,556.095 C 76.749,562.305 81.789,567.345 87.999,567.345 C 94.209,567.345 99.249,562.305 99.249,556.095 C 99.249,549.885 94.209,544.845 87.999,544.845 C 81.789,544.845 76.749,549.885 76.749,556.095 Z" fill="#ff7f7f" stroke-linecap="round" stroke-width="2" stroke-linejoin="miter" marker-start="none" marker-end="none" stroke-miterlimit="79.8403193612775"/>
    <text xml:space="preserve" transform="matrix(0 -1 -1 0 83.57 663.931)" font-size="14" font-family="Fira Code" stroke-linejoin="round" stroke-linecap="round" stroke-width="0.25" stroke="none" fill="#000000" stroke-miterlimit="79.8403193612775"><tspan x="-94.743" y="0">Power Strip</tspan></text>
    <text xml:space="preserve" transform="matrix(0 -1 -1 0 207.498 663.977)" font-size="14" font-family="Fira Code" stroke-linejoin="round" stroke-linecap="round" stroke-width="0.25" stroke="none" fill="#000000" stroke-miterlimit="79.8403193612775"><tspan x="-60.291" y="0">Printer</tspan></text>
    <text xml:space="preserve" transform="matrix(0 -1 -1 0 325.254 664.089)" font-size="14" font-family="Fira Code" stroke-linejoin="round" stroke-linecap="round" stroke-width="0.25" stroke="none" fill="#000000" stroke-miterlimit="79.8403193612775"><tspan x="-17.226" y="0">Pi</tspan></text>
    <text xml:space="preserve" transform="matrix(0 -1 -1 0 443.334 664.089)" font-size="14" font-family="Fira Code" stroke-linejoin="round" stroke-linecap="round" stroke-width="0.25" stroke="none" fill="#000000" stroke-miterlimit="79.8403193612775"><tspan x="-51.678" y="0">Camera</tspan></text>
    <path d="M 86.481,659.65 L 86.481,592.97" fill="none" stroke-width="1.5" marker-end="url(#DefaultArrowScaled)" stroke-linejoin="round" stroke-linecap="round" stroke-miterlimit="79.8403193612775"/>
    <path d="M 210.321,659.651 L 210.321,615.465" fill="none" stroke-width="1.5" marker-end="url(#DefaultArrowScaled_1)" stroke-linejoin="round" stroke-linecap="round" stroke-miterlimit="79.8403193612775"/>
    <path d="M 328.401,659.65 L 328.401,643.958" fill="none" stroke-width="1.5" marker-end="url(#DefaultArrowScaled_2)" stroke-linejoin="round" stroke-linecap="round" stroke-miterlimit="79.8403193612775"/>
    <path d="M 449.361,659.651 L 449.361,633.463" fill="none" stroke-width="1.5" marker-end="url(#DefaultArrowScaled_3)" stroke-linejoin="round" stroke-linecap="round" stroke-miterlimit="79.8403193612775"/>
    <path d="M 125.206,540.131 L 125.206,523.226 L 142.113,523.226 L 142.113,540.131 L 125.206,540.131 Z" fill="#ff7f7f" stroke="none" stroke-linecap="round" stroke-width="2" stroke-linejoin="round" marker-start="none" marker-end="none" stroke-miterlimit="79.8403193612775"/>
    <path d="M 394.101,506.649 C 425.896,508.6 457.396,507.6 487.101,488.649" fill="none" stroke-dasharray="4 4" stroke-dashoffset="0" stroke-linejoin="round" stroke-linecap="round" stroke-width="2" marker-end="url(#DefaultArrowScaled_4)" stroke-miterlimit="79.8403193612775"/>
    <g id="Group_2" font-size="7.57" font-family="Fira Code" stroke-linejoin="round" stroke-linecap="round" stroke="none">
     <path d="M 436.456,444.016 L 436.456,434.875 L 445.598,434.875 L 445.598,444.016 L 436.456,444.016 Z" fill="#00bfbf" stroke-width="1.081" marker-start="none" marker-end="none" stroke-miterlimit="79.8403193612775"/>
     <path d="M 436.456,454.917 L 436.456,445.776 L 445.598,445.776 L 445.598,454.917 L 436.456,454.917 Z" fill="#ff7f7f" stroke-width="1.081" marker-start="none" marker-end="none" stroke-miterlimit="79.8403193612775"/>
     <path d="M 436.456,433.115 L 436.456,423.974 L 445.598,423.974 L 445.598,433.115 L 436.456,433.115 Z" fill="#ffc17f" stroke-width="1.081" marker-start="none" marker-end="none" stroke-miterlimit="79.8403193612775"/>
     <path d="M 436.456,422.214 L 436.456,413.073 L 445.598,413.073 L 445.598,422.214 L 436.456,422.214 Z" fill="#00bf02" stroke-width="1.081" marker-start="none" marker-end="none" stroke-miterlimit="79.8403193612775"/>
     <text xml:space="preserve" transform="translate(448.836 448.001) scale(1 -1)" stroke-width="0.135" fill="#000000" stroke-miterlimit="79.8403193612775"><tspan x="0" y="0">Printer power</tspan></text>
     <text xml:space="preserve" transform="translate(448.836 437.1) scale(1 -1)" stroke-width="0.135" fill="#000000" stroke-miterlimit="79.8403193612775"><tspan x="0" y="0">RPi Power</tspan></text>
     <text xml:space="preserve" transform="translate(448.836 426.199) scale(1 -1)" stroke-width="0.135" fill="#000000" stroke-miterlimit="79.8403193612775"><tspan x="0" y="0">Ethernet</tspan></text>
     <text xml:space="preserve" transform="translate(448.836 415.297) scale(1 -1)" stroke-width="0.135" fill="#000000" stroke-miterlimit="79.8403193612775"><tspan x="0" y="0">Camera ribbon</tspan></text>
    </g>
   </g>
  </g>
 </g>
</svg>
