<?xml version="1.0" standalone="no"?>
<!DOCTYPE svg PUBLIC "-//W3C//DTD SVG 1.1//EN" "http://www.w3.org/Graphics/SVG/1.1/DTD/svg11.dtd">
<!--Generator: Xara Designer (www.xara.com), SVG filter version: 4.0.0.1-->
<svg stroke-width="0.501" stroke-linejoin="bevel" fill-rule="evenodd" xmlns:xlink="http://www.w3.org/1999/xlink" xmlns="http://www.w3.org/2000/svg" version="1.1" overflow="visible" width="216pt" height="360pt" viewBox="0 0 216 360">
 <defs>
  <marker id="DefaultArrow2" markerUnits="strokeWidth" viewBox="0 0 1 1" markerWidth="1" markerHeight="1" overflow="visible" orient="auto">
   <!-- REF_ARROW_STRAIGHT (-2) -->
   <g transform="scale(0.0092592592)">
    <!-- 1/108 -->
    <path d="M -9 54 L -9 -54 L 117 0 z"/>
   </g>
  </marker>
  <marker id="DefaultArrow3" markerUnits="strokeWidth" viewBox="0 0 1 1" markerWidth="1" markerHeight="1" overflow="visible" orient="auto">
   <!-- REF_ARROW_ANGLED -->
   <g transform="scale(0.0092592592)">
    <path d="M -27 54 L -9 0 L -27 -54 L 135 0 z"/>
   </g>
  </marker>
  <marker id="DefaultArrow4" markerUnits="strokeWidth" viewBox="0 0 1 1" markerWidth="1" markerHeight="1" overflow="visible" orient="auto">
   <!-- REF_ARROW_ROUNDED -->
   <g transform="scale(0.0092592592)">
    <path d="M -9,0 L -9,-45 C -9,-51.708 2.808,-56.580 9,-54 L 117,-9 C 120.916,-7.369 126.000,-4.242 126,0 C 126,4.242 120.916,7.369 117,9 L 9,54 C 2.808,56.580 -9,51.708 -9,45 z"/>
   </g>
  </marker>
  <marker id="DefaultArrow5" markerUnits="strokeWidth" viewBox="0 0 1 1" markerWidth="1" markerHeight="1" overflow="visible" orient="auto">
   <!-- REF_ARROW_SPOT -->
   <g transform="scale(0.0092592592)">
    <path d="M -54, 0 C -54,29.807 -29.807,54 0,54 C 29.807,54 54,29.807 54,0 C 54,-29.807 29.807,-54 0,-54 C -29.807,-54 -54,-29.807 -54,0 z"/>
   </g>
  </marker>
  <marker id="DefaultArrow6" markerUnits="strokeWidth" viewBox="0 0 1 1" markerWidth="1" markerHeight="1" overflow="visible" orient="auto">
   <!-- REF_ARROW_DIAMOND -->
   <g transform="scale(0.0092592592)">
    <path d="M -63,0 L 0,63 L 63,0 L 0,-63 z"/>
   </g>
  </marker>
  <marker id="DefaultArrow7" markerUnits="strokeWidth" viewBox="0 0 1 1" markerWidth="1" markerHeight="1" overflow="visible" orient="auto">
   <!-- REF_ARROW_FEATHER -->
   <g transform="scale(0.0092592592)">
    <path d="M 18,-54 L 108,-54 L 63,0 L 108,54 L 18, 54 L -36,0 z"/>
   </g>
  </marker>
  <marker id="DefaultArrow8" markerUnits="strokeWidth" viewBox="0 0 1 1" markerWidth="1" markerHeight="1" overflow="visible" orient="auto">
   <!-- REF_ARROW_FEATHER2 -->
   <g transform="scale(0.0092592592)">
    <path d="M -36,0 L 18,-54 L 54,-54 L 18,-18 L 27,-18 L 63,-54 L 99,-54 L 63,-18 L 72,-18 L 108,-54 L 144,-54 L 90,0 L 144,54 L 108,54 L 72,18 L 63,18 L 99,54 L 63,54 L 27,18 L 18,18 L 54,54 L 18,54 z"/>
   </g>
  </marker>
  <marker id="DefaultArrow9" markerUnits="strokeWidth" viewBox="0 0 1 1" markerWidth="1" markerHeight="1" overflow="visible" orient="auto">
   <!-- REF_ARROW_HOLLOWDIAMOND -->
   <g transform="scale(0.0092592592)">
    <path d="M 0,45 L -45,0 L 0, -45 L 45, 0 z M 0, 63 L-63, 0 L 0, -63 L 63, 0 z"/>
   </g>
  </marker>
  <filter id="StainedFilter">
   <feBlend mode="multiply" in2="BackgroundImage" in="SourceGraphic" result="blend"/>
   <feComposite in="blend" in2="SourceAlpha" operator="in" result="comp"/>
  </filter>
  <filter id="BleachFilter">
   <feBlend mode="screen" in2="BackgroundImage" in="SourceGraphic" result="blend"/>
   <feComposite in="blend" in2="SourceAlpha" operator="in" result="comp"/>
  </filter>
  <filter id="InvertTransparencyBitmapFilter">
   <feComponentTransfer>
    <feFuncR type="gamma" amplitude="1.055" exponent=".416666666" offset="-0.055"/>
    <feFuncG type="gamma" amplitude="1.055" exponent=".416666666" offset="-0.055"/>
    <feFuncB type="gamma" amplitude="1.055" exponent=".416666666" offset="-0.055"/>
   </feComponentTransfer>
   <feComponentTransfer>
    <feFuncR type="linear" slope="-1" intercept="1"/>
    <feFuncG type="linear" slope="-1" intercept="1"/>
    <feFuncB type="linear" slope="-1" intercept="1"/>
    <feFuncA type="linear" slope="1" intercept="0"/>
   </feComponentTransfer>
   <feComponentTransfer>
    <feFuncR type="gamma" amplitude="1" exponent="2.4" offset="0"/>
    <feFuncG type="gamma" amplitude="1" exponent="2.4" offset="0"/>
    <feFuncB type="gamma" amplitude="1" exponent="2.4" offset="0"/>
   </feComponentTransfer>
  </filter>
  <linearGradient id="LinearGradient" gradientUnits="userSpaceOnUse" x1="0" y1="0" x2="226.923" y2="0" gradientTransform="translate(185.39 246.219) rotate(-94.5802) skewX(1.04901)">
   <stop offset="0" stop-color="#b4cfdd"/>
   <stop offset="1" stop-color="#000000"/>
  </linearGradient>
  <linearGradient id="LinearGradient_1" gradientUnits="userSpaceOnUse" x1="0" y1="0" x2="109.658" y2="0" gradientTransform="translate(94.391 260.16) rotate(-91.0649) skewX(0.244916)">
   <stop offset="0" stop-color="#ffffff"/>
   <stop offset="1" stop-color="#000000"/>
  </linearGradient>
  <linearGradient id="LinearGradient_2" gradientUnits="userSpaceOnUse" x1="0" y1="0" x2="-2.26" y2="-109.64" gradientTransform="translate(104.701 260.16)">
   <stop offset="0" stop-color="#191919"/>
   <stop offset="1" stop-color="#000000"/>
  </linearGradient>
  <linearGradient id="LinearGradient_3" gradientUnits="userSpaceOnUse" x1="0" y1="0" x2="82.069" y2="0" gradientTransform="translate(204.234 343.621) rotate(-90.3595) skewX(51.1795)">
   <stop offset="0" stop-color="#b4cfdd"/>
   <stop offset="1" stop-color="#000000"/>
  </linearGradient>
  <linearGradient id="LinearGradient_4" gradientUnits="userSpaceOnUse" x1="0" y1="0" x2="243.995" y2="0" gradientTransform="translate(204.234 241.107) rotate(-90.1209) skewX(74.9202)">
   <stop offset="0" stop-color="#b4cfdd"/>
   <stop offset="1" stop-color="#000000"/>
  </linearGradient>
  <linearGradient id="LinearGradient_5" gradientUnits="userSpaceOnUse" x1="0" y1="0" x2="59.808" y2="0" gradientTransform="translate(337.695 273.066) rotate(-92.6719) skewX(6.93315)">
   <stop offset="0" stop-color="#b4cfdd"/>
   <stop offset="1" stop-color="#000000"/>
  </linearGradient>
 </defs>
 <g id="Document" fill="none" stroke="black" font-family="Inter" font-size="16" transform="scale(1 -1)">
  <g id="Spread" transform="translate(0 -360)">
   <g id="Layer 1">
    <mask id="TranspMask">
     <rect x="-10%" y="-10%" width="120%" height="120%" fill="url(#LinearGradient_1)" stroke="none"/>
    </mask>
    <path d="M -0.001,263.759 L -0.001,35.16 L 195,35.16 L 195,263.759 L -0.001,263.759 Z" stroke="none" stroke-linecap="round" stroke-width="1" stroke-linejoin="miter" marker-start="none" marker-end="none" stroke-miterlimit="79.8403193612775" mask="url(#TranspMask)" fill="url(#LinearGradient)"/>
    <path d="M 28.553,270.892 L 60.281,322.836 L 70.951,291.108 L 104.241,350.619 L 129.44,290.019 L 162.14,304.119 L 191.24,263.919 L 164.45,196.205 L 141.707,197.328 L 128.51,149.315 L 104.924,142.576 L 72.141,24.76 L 49.331,148.473 L 36.134,138.926 L 22.938,199.294 L 11.706,206.594 L 9.741,263.591 L 28.553,270.892 Z" stroke-width="1" fill="#ffffff" stroke-linejoin="round" stroke-linecap="round" marker-start="none" marker-end="none" stroke-miterlimit="79.8403193612775"/>
    <mask id="TranspMask_1">
     <rect x="-10%" y="-10%" width="120%" height="120%" fill="url(#LinearGradient_2)" stroke="none"/>
    </mask>
    <path d="M 73.197,79.12 L 49.331,148.473 L 36.134,138.926 L 22.938,199.294 L 11.706,206.594 L 9.741,263.591 L 10.173,263.759 L 191.176,263.759 L 164.45,196.205 L 141.707,197.328 L 128.51,149.315 L 104.924,142.576 L 73.197,79.12 Z" fill="#000000" stroke-linejoin="miter" stroke-linecap="round" stroke-width="1" stroke="none" marker-start="none" marker-end="none" stroke-miterlimit="79.8403193612775" mask="url(#TranspMask_1)"/>
    <path d="M 0.124,263.787 L 194.723,263.787" fill="none" stroke-width="0.25" stroke-linejoin="round" stroke-linecap="round" stroke-miterlimit="79.8403193612775"/>
    <text xml:space="preserve" transform="matrix(0 -1 -1 0 208.116 330.463)" font-size="6.942" font-family="Inter" stroke-linejoin="round" stroke-linecap="round" stroke-width="0.174" stroke="none" fill="#000000" stroke-miterlimit="79.8403193612775"><tspan x="0" y="0">Impressive</tspan></text>
    <text xml:space="preserve" transform="matrix(0 -1 -1 0 208.116 150.428)" font-size="6.942" font-family="Inter" stroke-linejoin="round" stroke-linecap="round" stroke-width="0.174" stroke="none" fill="#000000" stroke-miterlimit="79.8403193612775"><tspan x="0" y="0">Terrifying</tspan></text>
    <path d="M 198.921,266.703 L 204.553,266.703 L 204.553,350.328 L 198.921,350.328" fill="none" stroke-linecap="round" stroke-width="0.25" stroke-linejoin="round" stroke-miterlimit="79.8403193612775"/>
    <path d="M 198.921,12.423 L 204.553,12.423 L 204.553,261.048 L 198.921,261.048" fill="none" stroke-linecap="round" stroke-width="0.25" stroke-linejoin="round" stroke-miterlimit="79.8403193612775"/>
   </g>
  </g>
 </g>
</svg>
